<svg width="224" height="174" viewBox="0 0 224 174" fill="none" xmlns="http://www.w3.org/2000/svg">
<rect y="-0.00012207" width="224" height="167.932" rx="4.28462" fill="white"/>
<rect x="24" y="108" width="176" height="3" fill="#D9D9D9"/>
<rect x="24" y="117" width="176" height="3" fill="#D9D9D9"/>
<rect x="24" y="22" width="176" height="3" fill="#D9D9D9"/>
<rect x="24" y="31" width="176" height="3" fill="#D9D9D9"/>
<rect x="24" y="40" width="176" height="3" fill="#D9D9D9"/>
<rect x="24" y="49" width="176" height="3" fill="#D9D9D9"/>
<rect x="24" y="58" width="176" height="3" fill="#D9D9D9"/>
<rect x="24" y="69" width="176" height="31" fill="#D9D9D9"/>
<rect x="24" y="131" width="51.9998" height="42.5453" fill="#FF6240"/>
<path d="M47.5991 169.151L45.9207 163.641H37.481L35.8026 169.151H30.514L38.6844 145.907H44.6856L52.8877 169.151H47.5991ZM44.7489 159.524L43.0705 154.141C42.9649 153.782 42.8224 153.322 42.643 152.763C42.4741 152.193 42.2999 151.618 42.1205 151.037C41.9516 150.446 41.8143 149.934 41.7088 149.501C41.6032 149.934 41.4554 150.472 41.2654 151.116C41.0859 151.75 40.9118 152.351 40.7429 152.921C40.574 153.491 40.4526 153.898 40.3787 154.141L38.7161 159.524H44.7489ZM61.0423 169.468C59.0683 169.468 57.4585 168.697 56.2129 167.156C54.9778 165.605 54.3603 163.33 54.3603 160.332C54.3603 157.302 54.9884 155.011 56.2446 153.46C57.5007 151.897 59.1422 151.116 61.169 151.116C62.0135 151.116 62.7577 151.232 63.4016 151.465C64.0455 151.697 64.5997 152.008 65.0642 152.399C65.5392 152.789 65.9404 153.227 66.2676 153.713H66.426C66.3626 153.375 66.2834 152.879 66.1884 152.225C66.104 151.56 66.0618 150.879 66.0618 150.182V144.513H70.907V169.151H67.2018L66.2676 166.855H66.0618C65.7556 167.341 65.3703 167.784 64.9059 168.185C64.452 168.576 63.9083 168.887 63.2749 169.12C62.6416 169.352 61.8974 169.468 61.0423 169.468ZM62.7366 165.62C64.0561 165.62 64.985 165.23 65.5234 164.449C66.0723 163.657 66.3626 162.469 66.3943 160.886V160.363C66.3943 158.643 66.1304 157.328 65.6026 156.421C65.0748 155.502 64.0931 155.043 62.6574 155.043C61.5912 155.043 60.7573 155.502 60.1556 156.421C59.5539 157.339 59.2531 158.664 59.2531 160.395C59.2531 162.126 59.5539 163.43 60.1556 164.306C60.7679 165.182 61.6282 165.62 62.7366 165.62Z" fill="white"/>
<rect x="148" y="131" width="51.9998" height="42.5453" fill="#FF6240"/>
<path d="M171.599 169.151L169.921 163.641H161.481L159.803 169.151H154.514L162.684 145.907H168.686L176.888 169.151H171.599ZM168.749 159.524L167.071 154.141C166.965 153.782 166.822 153.322 166.643 152.763C166.474 152.193 166.3 151.618 166.12 151.037C165.952 150.446 165.814 149.934 165.709 149.501C165.603 149.934 165.455 150.472 165.265 151.116C165.086 151.75 164.912 152.351 164.743 152.921C164.574 153.491 164.453 153.898 164.379 154.141L162.716 159.524H168.749ZM185.042 169.468C183.068 169.468 181.459 168.697 180.213 167.156C178.978 165.605 178.36 163.33 178.36 160.332C178.36 157.302 178.988 155.011 180.245 153.46C181.501 151.897 183.142 151.116 185.169 151.116C186.013 151.116 186.758 151.232 187.402 151.465C188.046 151.697 188.6 152.008 189.064 152.399C189.539 152.789 189.94 153.227 190.268 153.713H190.426C190.363 153.375 190.283 152.879 190.188 152.225C190.104 151.56 190.062 150.879 190.062 150.182V144.513H194.907V169.151H191.202L190.268 166.855H190.062C189.756 167.341 189.37 167.784 188.906 168.185C188.452 168.576 187.908 168.887 187.275 169.12C186.642 169.352 185.897 169.468 185.042 169.468ZM186.737 165.62C188.056 165.62 188.985 165.23 189.523 164.449C190.072 163.657 190.363 162.469 190.394 160.886V160.363C190.394 158.643 190.13 157.328 189.603 156.421C189.075 155.502 188.093 155.043 186.657 155.043C185.591 155.043 184.757 155.502 184.156 156.421C183.554 157.339 183.253 158.664 183.253 160.395C183.253 162.126 183.554 163.43 184.156 164.306C184.768 165.182 185.628 165.62 186.737 165.62Z" fill="white"/>
<rect x="86" y="131" width="51.9998" height="42.5453" fill="#FF6240"/>
<path d="M109.6 169.151L107.922 163.641H99.482L97.8036 169.151H92.515L100.685 145.907H106.687L114.889 169.151H109.6ZM106.75 159.524L105.071 154.141C104.966 153.782 104.823 153.322 104.644 152.763C104.475 152.193 104.301 151.618 104.121 151.037C103.953 150.446 103.815 149.934 103.71 149.501C103.604 149.934 103.456 150.472 103.266 151.116C103.087 151.75 102.913 152.351 102.744 152.921C102.575 153.491 102.454 153.898 102.38 154.141L100.717 159.524H106.75ZM123.043 169.468C121.069 169.468 119.459 168.697 118.214 167.156C116.979 165.605 116.361 163.33 116.361 160.332C116.361 157.302 116.989 155.011 118.246 153.46C119.502 151.897 121.143 151.116 123.17 151.116C124.014 151.116 124.759 151.232 125.403 151.465C126.047 151.697 126.601 152.008 127.065 152.399C127.54 152.789 127.941 153.227 128.269 153.713H128.427C128.364 153.375 128.284 152.879 128.189 152.225C128.105 151.56 128.063 150.879 128.063 150.182V144.513H132.908V169.151H129.203L128.269 166.855H128.063C127.757 167.341 127.371 167.784 126.907 168.185C126.453 168.576 125.909 168.887 125.276 169.12C124.643 169.352 123.898 169.468 123.043 169.468ZM124.738 165.62C126.057 165.62 126.986 165.23 127.524 164.449C128.073 163.657 128.364 162.469 128.395 160.886V160.363C128.395 158.643 128.131 157.328 127.604 156.421C127.076 155.502 126.094 155.043 124.658 155.043C123.592 155.043 122.758 155.502 122.157 156.421C121.555 157.339 121.254 158.664 121.254 160.395C121.254 162.126 121.555 163.43 122.157 164.306C122.769 165.182 123.629 165.62 124.738 165.62Z" fill="white"/>
</svg>
