<svg width="224" height="168" viewBox="0 0 224 168" fill="none" xmlns="http://www.w3.org/2000/svg">
<rect y="-0.00012207" width="224" height="167.932" rx="4.28462" fill="white"/>
<rect x="24" y="18" width="103" height="3" fill="#D9D9D9"/>
<rect x="24" y="27" width="103" height="3" fill="#D9D9D9"/>
<rect x="24" y="36" width="103" height="3" fill="#D9D9D9"/>
<rect x="24" y="45" width="103" height="3" fill="#D9D9D9"/>
<rect x="24" y="54" width="103" height="3" fill="#D9D9D9"/>
<rect x="24" y="63" width="103" height="3" fill="#D9D9D9"/>
<rect x="24" y="138" width="103" height="3" fill="#D9D9D9"/>
<rect x="24" y="72" width="103" height="3" fill="#D9D9D9"/>
<rect x="24" y="147" width="103" height="3" fill="#D9D9D9"/>
<rect x="24" y="83" width="103" height="47" fill="#D9D9D9"/>
<rect y="-0.00012207" width="224" height="167.932" rx="4.28462" fill="black" fill-opacity="0.6"/>
<rect x="139" y="16" width="66" height="75" fill="#FF6240"/>
<path d="M168.953 85L166.823 78.0061H156.111L153.981 85H147.268L157.638 55.4971H165.255L175.666 85H168.953ZM165.336 72.7808L163.205 65.9477C163.071 65.4922 162.89 64.9094 162.663 64.1993C162.448 63.4758 162.227 62.7456 161.999 62.0087C161.785 61.2584 161.611 60.6085 161.477 60.0592C161.343 60.6085 161.155 61.2919 160.914 62.1091C160.686 62.913 160.465 63.6767 160.251 64.4002C160.037 65.1237 159.883 65.6396 159.789 65.9477L157.679 72.7808H165.336ZM186.016 85.4019C183.51 85.4019 181.467 84.4239 179.886 82.4677C178.318 80.4982 177.535 77.6109 177.535 73.8058C177.535 69.9605 178.332 67.0531 179.926 65.0835C181.521 63.1006 183.604 62.1091 186.177 62.1091C187.248 62.1091 188.193 62.2565 189.01 62.5513C189.828 62.846 190.531 63.2413 191.12 63.737C191.723 64.2328 192.233 64.7888 192.648 65.4051H192.849C192.768 64.9764 192.668 64.3466 192.547 63.516C192.44 62.6719 192.387 61.8077 192.387 60.9234V53.7286H198.536V85H193.834L192.648 82.0859H192.387C191.998 82.7022 191.509 83.2649 190.92 83.7741C190.343 84.2698 189.653 84.665 188.849 84.9598C188.046 85.2546 187.101 85.4019 186.016 85.4019ZM188.166 80.5183C189.841 80.5183 191.02 80.0226 191.703 79.0311C192.4 78.0262 192.768 76.5189 192.809 74.5092V73.846C192.809 71.6621 192.474 69.994 191.804 68.8417C191.134 67.6761 189.888 67.0933 188.066 67.0933C186.712 67.0933 185.654 67.6761 184.89 68.8417C184.127 70.0074 183.745 71.6889 183.745 73.8862C183.745 76.0835 184.127 77.7382 184.89 78.8502C185.667 79.9623 186.759 80.5183 188.166 80.5183Z" fill="white"/>
</svg>
