<svg width="72" height="72" viewBox="0 0 72 72" fill="none" xmlns="http://www.w3.org/2000/svg">
<g filter="url(#filter0_b_51_1201)">
<circle cx="36" cy="36" r="36" fill="#FF6240"/>
</g>
<path d="M27.2427 42.4207H30.2117C30.5641 42.4207 30.8738 42.1416 30.8738 41.7939V33.6029C30.8738 33.2553 30.5694 32.9919 30.2117 32.9919H27.8301V32.5336C27.8301 27.972 31.5039 24.2637 36 24.2637C40.496 24.2637 44.1698 27.972 44.1698 32.5336V32.9919H41.7882C41.4358 32.9919 41.1261 33.2553 41.1261 33.6029V41.7939C41.1261 42.1416 41.4305 42.4207 41.7882 42.4207H42.4077V44.5119C42.4077 45.4969 41.5907 46.3187 40.5921 46.3187H36.5231C36.2668 45.4759 35.4925 44.8859 34.5687 44.8859C33.442 44.8859 32.5235 45.7814 32.5235 46.8981V46.9718C32.5235 48.0832 33.4366 48.9998 34.5687 48.9998C35.4871 48.9998 36.2614 48.3729 36.5231 47.5828H40.5921C42.3008 47.5828 43.6892 46.1922 43.6892 44.5119V42.4207H44.7572C45.9961 42.4207 47 41.4304 47 40.2137V35.1834C47 34.1984 46.3592 33.3609 45.4514 33.0764V32.5339C45.4514 27.2768 41.2009 22.9998 36 22.9998C30.7991 22.9998 26.5486 27.2769 26.5486 32.5339V33.0764C25.6408 33.3609 25 34.1984 25 35.1834V40.2137C25 41.4304 26.0039 42.4207 27.2428 42.4207L27.2427 42.4207ZM35.3594 46.9718C35.3594 47.3879 35.0069 47.7303 34.5851 47.7303C34.1633 47.7303 33.8108 47.3932 33.8108 46.9718V46.8981C33.8108 46.4819 34.1633 46.1396 34.5851 46.1396C35.0069 46.1396 35.3594 46.4819 35.3594 46.8981V46.9718ZM45.7189 35.1833V40.2136C45.7189 40.7351 45.2863 41.1565 44.7577 41.1565H42.4081V34.2562H44.7577C45.2863 34.2562 45.7189 34.6618 45.7189 35.1833V35.1833ZM26.2819 35.1833C26.2819 34.6619 26.7144 34.2563 27.2431 34.2563H29.5927V41.1566H27.2431C26.7145 41.1566 26.2819 40.7352 26.2819 40.2137V35.1833Z" fill="white"/>
<defs>
<filter id="filter0_b_51_1201" x="-60" y="-60" width="192" height="192" filterUnits="userSpaceOnUse" color-interpolation-filters="sRGB">
<feFlood flood-opacity="0" result="BackgroundImageFix"/>
<feGaussianBlur in="BackgroundImageFix" stdDeviation="30"/>
<feComposite in2="SourceAlpha" operator="in" result="effect1_backgroundBlur_51_1201"/>
<feBlend mode="normal" in="SourceGraphic" in2="effect1_backgroundBlur_51_1201" result="shape"/>
</filter>
</defs>
</svg>
