<svg width="72" height="72" viewBox="0 0 72 72" fill="none" xmlns="http://www.w3.org/2000/svg">
<g filter="url(#filter0_b_51_1181)">
<circle cx="36" cy="36" r="36" fill="#FF6240"/>
</g>
<path d="M31.975 33.6555C30.9592 33.6555 29.9852 34.0591 29.2671 34.7771C28.5491 35.4952 28.1455 36.4692 28.1455 37.485C28.1455 38.5005 28.5491 39.4745 29.2671 40.1928C29.9852 40.9108 30.9592 41.3142 31.975 41.3142C32.9905 41.3142 33.9645 40.9108 34.6828 40.1928C35.4008 39.4745 35.8042 38.5005 35.8042 37.485C35.8042 36.4692 35.4008 35.4952 34.6828 34.7771C33.9645 34.0591 32.9905 33.6555 31.975 33.6555ZM31.975 39.8869V39.8871C31.3286 39.8871 30.7089 39.6302 30.2518 39.1732C29.7948 38.7162 29.5382 38.0965 29.5382 37.4501C29.5382 36.8039 29.7948 36.184 30.2518 35.727C30.7088 35.2702 31.3285 35.0133 31.975 35.0133C32.6212 35.0133 33.2411 35.2702 33.6981 35.727C34.1551 36.184 34.4117 36.8039 34.4117 37.4501C34.4117 38.0965 34.1551 38.7162 33.6981 39.1732C33.2411 39.6302 32.6212 39.8871 31.975 39.8871V39.8869Z" fill="white"/>
<path d="M48.0584 34.491H43.6722V30.5225H20V44.4125H24.3863V48.6595H48.0584V34.491ZM21.3924 31.9149H42.2796V43.0199H21.3924V31.9149ZM46.666 47.267H25.7787V44.4123H43.6721V35.8833H46.666V47.267Z" fill="white"/>
<path d="M41.2699 28.1205V21.5062L43.8111 23.8386L44.7511 22.7942L40.5737 18.9998L36.3613 22.7942L37.3013 23.8386L39.8773 21.5062V28.1205H41.2699Z" fill="white"/>
<path d="M28.1809 28.1205V21.5062L30.7569 23.8386L31.6969 22.7942L27.4845 18.9998L23.3071 22.7942L24.2471 23.8386L26.7883 21.5062V28.1205H28.1809Z" fill="white"/>
<defs>
<filter id="filter0_b_51_1181" x="-60" y="-60" width="192" height="192" filterUnits="userSpaceOnUse" color-interpolation-filters="sRGB">
<feFlood flood-opacity="0" result="BackgroundImageFix"/>
<feGaussianBlur in="BackgroundImageFix" stdDeviation="30"/>
<feComposite in2="SourceAlpha" operator="in" result="effect1_backgroundBlur_51_1181"/>
<feBlend mode="normal" in="SourceGraphic" in2="effect1_backgroundBlur_51_1181" result="shape"/>
</filter>
</defs>
</svg>
