<svg width="72" height="72" viewBox="0 0 72 72" fill="none" xmlns="http://www.w3.org/2000/svg">
<g filter="url(#filter0_b_18_416)">
<circle cx="36" cy="36" r="36" fill="#FF6240"/>
</g>
<path d="M46.275 45.6875H26.725C26.2674 45.6875 25.8288 45.5057 25.5052 45.1823C25.1818 44.8587 25 44.42 25 43.9625V28.725C25 28.2674 25.1818 27.8288 25.5052 27.5052C25.8288 27.1818 26.2675 27 26.725 27H46.275C46.7326 27 47.1712 27.1818 47.4948 27.5052C47.8182 27.8288 48 28.2675 48 28.725V43.9625C48 44.4201 47.8182 44.8587 47.4948 45.1823C47.1712 45.5057 46.7325 45.6875 46.275 45.6875ZM26.725 28.15C26.4075 28.15 26.15 28.4075 26.15 28.725V43.9625C26.15 44.1151 26.2106 44.2612 26.3185 44.369C26.4263 44.4769 26.5724 44.5375 26.725 44.5375H46.275C46.4276 44.5375 46.5737 44.4769 46.6815 44.369C46.7894 44.2612 46.85 44.1151 46.85 43.9625V28.725C46.85 28.5724 46.7894 28.4263 46.6815 28.3185C46.5737 28.2106 46.4276 28.15 46.275 28.15H26.725Z" fill="#222222"/>
<path d="M46.275 45.6875H26.725C26.2674 45.6875 25.8288 45.5057 25.5052 45.1823C25.1818 44.8587 25 44.42 25 43.9625V28.725C25 28.2674 25.1818 27.8288 25.5052 27.5052C25.8288 27.1818 26.2675 27 26.725 27H46.275C46.7326 27 47.1712 27.1818 47.4948 27.5052C47.8182 27.8288 48 28.2675 48 28.725V43.9625C48 44.4201 47.8182 44.8587 47.4948 45.1823C47.1712 45.5057 46.7325 45.6875 46.275 45.6875ZM26.725 28.15C26.4075 28.15 26.15 28.4075 26.15 28.725V43.9625C26.15 44.1151 26.2106 44.2612 26.3185 44.369C26.4263 44.4769 26.5724 44.5375 26.725 44.5375H46.275C46.4276 44.5375 46.5737 44.4769 46.6815 44.369C46.7894 44.2612 46.85 44.1151 46.85 43.9625V28.725C46.85 28.5724 46.7894 28.4263 46.6815 28.3185C46.5737 28.2106 46.4276 28.15 46.275 28.15H26.725Z" fill="white"/>
<path d="M25.575 30.1626H46.85V31.3126H25.575V30.1626Z" fill="#222222"/>
<path d="M25.575 30.1626H46.85V31.3126H25.575V30.1626Z" fill="white"/>
<path d="M28.1625 29.3001C28.1625 29.6176 27.905 29.8751 27.5875 29.8751C27.27 29.8751 27.0125 29.6176 27.0125 29.3001C27.0125 28.9826 27.27 28.7251 27.5875 28.7251C27.905 28.7251 28.1625 28.9826 28.1625 29.3001Z" fill="#222222"/>
<path d="M28.1625 29.3001C28.1625 29.6176 27.905 29.8751 27.5875 29.8751C27.27 29.8751 27.0125 29.6176 27.0125 29.3001C27.0125 28.9826 27.27 28.7251 27.5875 28.7251C27.905 28.7251 28.1625 28.9826 28.1625 29.3001Z" fill="white"/>
<path d="M30.175 29.3001C30.175 29.6176 29.9175 29.8751 29.6 29.8751C29.2825 29.8751 29.025 29.6176 29.025 29.3001C29.025 28.9826 29.2825 28.7251 29.6 28.7251C29.9175 28.7251 30.175 28.9826 30.175 29.3001Z" fill="#222222"/>
<path d="M30.175 29.3001C30.175 29.6176 29.9175 29.8751 29.6 29.8751C29.2825 29.8751 29.025 29.6176 29.025 29.3001C29.025 28.9826 29.2825 28.7251 29.6 28.7251C29.9175 28.7251 30.175 28.9826 30.175 29.3001Z" fill="white"/>
<path d="M32.1875 29.3001C32.1875 29.6176 31.93 29.8751 31.6125 29.8751C31.295 29.8751 31.0375 29.6176 31.0375 29.3001C31.0375 28.9826 31.295 28.7251 31.6125 28.7251C31.93 28.7251 32.1875 28.9826 32.1875 29.3001Z" fill="#222222"/>
<path d="M32.1875 29.3001C32.1875 29.6176 31.93 29.8751 31.6125 29.8751C31.295 29.8751 31.0375 29.6176 31.0375 29.3001C31.0375 28.9826 31.295 28.7251 31.6125 28.7251C31.93 28.7251 32.1875 28.9826 32.1875 29.3001Z" fill="white"/>
<path d="M45.125 40.2251H27.875V33.0376H45.125V40.2251ZM29.025 39.0751H43.975V34.1876H29.025V39.0751Z" fill="#222222"/>
<path d="M45.125 40.2251H27.875V33.0376H45.125V40.2251ZM29.025 39.0751H43.975V34.1876H29.025V39.0751Z" fill="white"/>
<path d="M39.0875 43.1H33.9125C33.595 43.1 33.3375 42.8425 33.3375 42.525C33.3375 42.2074 33.595 41.95 33.9125 41.95H39.0875C39.405 41.95 39.6625 42.2074 39.6625 42.525C39.6625 42.8425 39.405 43.1 39.0875 43.1Z" fill="#222222"/>
<path d="M39.0875 43.1H33.9125C33.595 43.1 33.3375 42.8425 33.3375 42.525C33.3375 42.2074 33.595 41.95 33.9125 41.95H39.0875C39.405 41.95 39.6625 42.2074 39.6625 42.525C39.6625 42.8425 39.405 43.1 39.0875 43.1Z" fill="white"/>
<defs>
<filter id="filter0_b_18_416" x="-60" y="-60" width="192" height="192" filterUnits="userSpaceOnUse" color-interpolation-filters="sRGB">
<feFlood flood-opacity="0" result="BackgroundImageFix"/>
<feGaussianBlur in="BackgroundImageFix" stdDeviation="30"/>
<feComposite in2="SourceAlpha" operator="in" result="effect1_backgroundBlur_18_416"/>
<feBlend mode="normal" in="SourceGraphic" in2="effect1_backgroundBlur_18_416" result="shape"/>
</filter>
</defs>
</svg>
