<svg width="72" height="72" viewBox="0 0 72 72" fill="none" xmlns="http://www.w3.org/2000/svg">
<g filter="url(#filter0_b_51_1196)">
<circle cx="36" cy="36" r="36" fill="#FF6240"/>
</g>
<path d="M45.029 30.1819H31.1923V28.9307C31.1923 25.1088 28.0229 21.9998 24.1279 21.9998C20.2329 21.9998 17.0645 25.1097 17.0645 28.9307V31.135C17.0645 31.6609 17.4993 32.0876 18.0353 32.0876C18.5713 32.0876 19.0061 31.6609 19.0061 31.135V28.9307C19.0061 26.1601 21.3035 23.9049 24.128 23.9049C26.9525 23.9049 29.2503 26.1597 29.2503 28.9307V30.1819H27.6004C27.0639 30.1819 26.6296 30.6086 26.6296 31.1345V48.229C26.6296 48.7549 27.0639 49.1816 27.6004 49.1816H45.0287C45.5647 49.1816 45.9995 48.7549 45.9995 48.229L45.9999 31.1345C45.9999 30.6086 45.5647 30.1819 45.0287 30.1819H45.029ZM44.0582 47.2764H28.5719V32.0874H44.0582V47.2764ZM35.3438 39.0888V42.4371C35.3438 42.9631 35.7782 43.3897 36.3147 43.3897C36.8506 43.3897 37.2855 42.9631 37.2855 42.4371V39.0897C37.7465 38.7835 38.0499 38.2652 38.0499 37.6789C38.0499 36.7396 37.2719 35.9762 36.3146 35.9762C35.3578 35.9762 34.5798 36.7396 34.5798 37.6789C34.5798 38.2647 34.8832 38.7826 35.3438 39.0888H35.3438Z" fill="white"/>
<defs>
<filter id="filter0_b_51_1196" x="-60" y="-60" width="192" height="192" filterUnits="userSpaceOnUse" color-interpolation-filters="sRGB">
<feFlood flood-opacity="0" result="BackgroundImageFix"/>
<feGaussianBlur in="BackgroundImageFix" stdDeviation="30"/>
<feComposite in2="SourceAlpha" operator="in" result="effect1_backgroundBlur_51_1196"/>
<feBlend mode="normal" in="SourceGraphic" in2="effect1_backgroundBlur_51_1196" result="shape"/>
</filter>
</defs>
</svg>
