<svg width="69" height="69" viewBox="0 0 69 69" fill="none" xmlns="http://www.w3.org/2000/svg">
  <g>
    <path
      d="M56.9893 12.0107C50.9822 6.00353 42.9953 2.69531 34.5 2.69531C26.0047 2.69531 18.0178 6.00353 12.0107 12.0107C6.00353 18.0178 2.69531 26.0047 2.69531 34.5C2.69531 42.9953 6.00353 50.9822 12.0107 56.9893C18.0178 62.9965 26.0047 66.3047 34.5 66.3047C42.9953 66.3047 50.9822 62.9965 56.9893 56.9893C62.9965 50.9822 66.3047 42.9953 66.3047 34.5C66.3047 26.0047 62.9965 18.0178 56.9893 12.0107ZM34.5 63.6094C18.449 63.6094 5.39062 50.551 5.39062 34.5C5.39062 18.449 18.449 5.39062 34.5 5.39062C50.551 5.39062 63.6094 18.449 63.6094 34.5C63.6094 50.551 50.551 63.6094 34.5 63.6094Z"
      fill="#18B73B"></path>
    <path
      d="M60.4011 29.2923C58.7373 20.9718 53.1135 13.9139 45.3576 10.4127C44.6789 10.1064 43.8809 10.4081 43.5748 11.0865C43.2686 11.7649 43.5701 12.5632 44.2485 12.8693C51.2141 16.0137 56.2644 22.3508 57.7582 29.8211C57.8864 30.4617 58.4491 30.9047 59.0784 30.9047C59.1658 30.9047 59.2548 30.8961 59.3439 30.8781C60.0739 30.7322 60.547 30.0224 60.4011 29.2923Z"
      fill="#18B73B"></path>
    <path
      d="M40.7529 8.83065L40.7046 8.81894C39.9808 8.64482 39.2532 9.09062 39.0791 9.81431C38.9052 10.5381 39.3508 11.2657 40.0744 11.4397L40.1082 11.4478C40.2164 11.4745 40.3249 11.4873 40.4317 11.4873C41.0372 11.4873 41.5876 11.0761 41.7391 10.4616C41.9171 9.73884 41.4757 9.00869 40.7529 8.83065Z"
      fill="#18B73B"></path>
    <path
      d="M30.2763 9.75078C30.1126 9.02452 29.3909 8.56888 28.6653 8.73249C23.8683 9.81398 19.4719 12.2208 15.9516 15.6926C12.4344 19.1614 9.96751 23.5194 8.81756 28.2954C8.6433 29.0191 9.08857 29.7469 9.81226 29.9211C9.91817 29.9466 10.0244 29.9589 10.1288 29.9589C10.7373 29.9589 11.2893 29.544 11.4379 28.9264C13.5331 20.2247 20.5278 13.3302 29.258 11.3619C29.9841 11.1982 30.44 10.4768 30.2763 9.75078Z"
      fill="#18B73B"></path>
    <path
      d="M24.3007 55.9191C17.5799 52.7123 12.6987 46.4539 11.2437 39.1775C11.0977 38.4478 10.3876 37.9741 9.65788 38.1202C8.928 38.2663 8.45469 38.9762 8.60064 39.706C10.2213 47.8106 15.6566 54.7809 23.1399 58.3515C23.3271 58.4411 23.5248 58.4833 23.7194 58.4833C24.2226 58.4833 24.7054 58.2001 24.9367 57.7157C25.2572 57.044 24.9726 56.2396 24.3007 55.9191Z"
      fill="#18B73B"></path>
    <path
      d="M28.92 57.5592C28.1972 57.3805 27.467 57.8223 27.289 58.5449C27.1108 59.2677 27.5521 59.998 28.2749 60.1762L28.2933 60.1807C28.4003 60.2066 28.507 60.2192 28.6121 60.2192C29.2184 60.2192 29.7663 59.8048 29.9162 59.1887C30.0921 58.4654 29.6431 57.7352 28.92 57.5592Z"
      fill="#18B73B"></path>
    <path
      d="M59.1848 39.0789C58.4615 38.9043 57.7334 39.3499 57.5592 40.0735C55.464 48.7753 48.4693 55.6698 39.7392 57.638C39.013 57.8019 38.5571 58.5229 38.7208 59.2491C38.8621 59.8755 39.4182 60.3007 40.0342 60.3007C40.1325 60.3007 40.2321 60.2898 40.3318 60.2674C45.1288 59.1858 49.5252 56.7793 53.0455 53.3072C56.5628 49.8386 59.0296 45.4805 60.1796 40.7045C60.3538 39.9807 59.9086 39.2529 59.1848 39.0789Z"
      fill="#18B73B"></path>
    <path
      d="M34.4999 0C33.7556 0 33.1523 0.603346 33.1523 1.34766V11.4551C33.1523 12.1994 33.7556 12.8027 34.4999 12.8027C35.2443 12.8027 35.8475 12.1994 35.8475 11.4551V1.34766C35.8475 0.603346 35.2443 0 34.4999 0Z"
      fill="#18B73B"></path>
    <path
      d="M34.4999 56.1973C33.7556 56.1973 33.1523 56.8008 33.1523 57.545V67.6525C33.1523 68.3966 33.7556 69 34.4999 69C35.2443 69 35.8475 68.3966 35.8475 67.6525V57.545C35.8475 56.8008 35.2443 56.1973 34.4999 56.1973Z"
      fill="#18B73B"></path>
    <path
      d="M67.6525 33.1523H57.545C56.8007 33.1523 56.1973 33.7556 56.1973 34.4999C56.1973 35.2441 56.8007 35.8475 57.545 35.8475H67.6525C68.3966 35.8475 69 35.2441 69 34.4999C69 33.7556 68.3966 33.1523 67.6525 33.1523Z"
      fill="#18B73B"></path>
    <path
      d="M11.4551 33.1523H1.34766C0.603346 33.1523 0 33.7556 0 34.4999C0 35.2441 0.603346 35.8475 1.34766 35.8475H11.4551C12.1994 35.8475 12.8027 35.2441 12.8027 34.4999C12.8027 33.7556 12.1994 33.1523 11.4551 33.1523Z"
      fill="#18B73B"></path>
    <path
      d="M40.4676 33.0952C40.4538 33.0913 40.4398 33.0885 40.4258 33.085C41.6872 31.6766 42.456 29.8184 42.456 27.7836V16.7773C42.456 16.033 41.8526 15.4297 41.1084 15.4297H32.9224C29.4052 15.4297 26.5437 18.2911 26.5437 21.8084V27.7836C26.5437 29.8184 27.3126 31.6766 28.5739 33.085C28.5599 33.0885 28.5459 33.0914 28.5321 33.0952C22.7089 33.6319 18.1328 38.5424 18.1328 44.5035V49.2559C18.1328 50.0001 18.7362 50.6035 19.4806 50.6035H49.5192C50.2635 50.6035 50.8669 50.0001 50.8669 49.2559V44.5035C50.8669 38.5424 46.291 33.632 40.4676 33.0952ZM34.5001 33.0445C31.5994 33.0445 29.2392 30.6845 29.2392 27.7836V26.0025H37.2934C38.1866 26.0025 39.0274 25.7743 39.761 25.3734V27.7836C39.761 30.6845 37.4009 33.0445 34.5001 33.0445ZM36.8492 35.7397L34.5 38.0889L32.1507 35.7397H36.8492ZM29.2391 21.8084H29.2392C29.2392 19.7774 30.8914 18.125 32.9226 18.125H39.7609V20.8398C39.7609 22.2003 38.6539 23.3072 37.2932 23.3072H29.2391V21.8084ZM48.1716 47.9081H20.8283V44.5035C20.8283 40.0689 24.14 36.3955 28.4197 35.8204L33.5471 40.9478C33.8103 41.2108 34.1551 41.3426 34.5 41.3426C34.8448 41.3426 35.1898 41.2108 35.4528 40.9478L40.5804 35.8204C44.8601 36.3955 48.1716 40.0689 48.1716 44.5035V47.9081Z"
      fill="#18B73B"></path>
  </g>
  <defs>
    <clipPath id="clip0">
      <rect width="69" height="69" fill="white"></rect>
    </clipPath>
  </defs>
</svg>
