<svg width="69" height="69" viewBox="0 0 69 69" fill="none" xmlns="http://www.w3.org/2000/svg">
  <g>
    <path
      d="M34.5 0C31.379 0 28.8398 2.53912 28.8398 5.66016C28.8398 8.78119 31.379 11.3203 34.5 11.3203C37.621 11.3203 40.1602 8.78119 40.1602 5.66016C40.1602 2.53912 37.621 0 34.5 0ZM34.5 8.625C32.8652 8.625 31.5352 7.295 31.5352 5.66016C31.5352 4.02531 32.8652 2.69531 34.5 2.69531C36.1348 2.69531 37.4648 4.02531 37.4648 5.66016C37.4648 7.295 36.1348 8.625 34.5 8.625Z"
      fill="#18B73B"></path>
    <path
      d="M63.3398 28.8398C60.2188 28.8398 57.6797 31.379 57.6797 34.5C57.6797 37.621 60.2188 40.1602 63.3398 40.1602C66.4609 40.1602 69 37.621 69 34.5C69 31.379 66.4609 28.8398 63.3398 28.8398ZM63.3398 37.4648C61.705 37.4648 60.375 36.1348 60.375 34.5C60.375 32.8652 61.705 31.5352 63.3398 31.5352C64.9747 31.5352 66.3047 32.8652 66.3047 34.5C66.3047 36.1348 64.9747 37.4648 63.3398 37.4648Z"
      fill="#18B73B"></path>
    <path
      d="M5.66016 28.8398C2.53912 28.8398 0 31.379 0 34.5C0 37.621 2.53912 40.1602 5.66016 40.1602C8.78119 40.1602 11.3203 37.621 11.3203 34.5C11.3203 31.379 8.78119 28.8398 5.66016 28.8398ZM5.66016 37.4648C4.02531 37.4648 2.69531 36.1348 2.69531 34.5C2.69531 32.8652 4.02531 31.5352 5.66016 31.5352C7.295 31.5352 8.625 32.8652 8.625 34.5C8.625 36.1348 7.295 37.4648 5.66016 37.4648Z"
      fill="#18B73B"></path>
    <path
      d="M7.74985 23.6287C7.04812 23.3799 6.27807 23.7469 6.02916 24.4483L6.01501 24.4887C5.76987 25.1915 6.14088 25.96 6.84368 26.2051C6.99058 26.2563 7.14044 26.2807 7.2876 26.2807C7.84472 26.2807 8.36613 25.9323 8.55992 25.3766L8.56949 25.3493C8.81827 24.6479 8.4513 23.8774 7.74985 23.6287Z"
      fill="#18B73B"></path>
    <path
      d="M26.2029 6.84031C25.956 6.13818 25.1865 5.76932 24.4845 6.01608C17.2996 8.54253 11.3759 13.6503 7.80431 20.3985C7.45608 21.0563 7.70714 21.8719 8.36493 22.2202C8.56587 22.3265 8.78163 22.3769 8.99415 22.3769C9.47729 22.3769 9.94466 22.1161 10.1864 21.6594C13.4399 15.5122 18.8353 10.8596 25.3787 8.5587C26.0808 8.31181 26.4498 7.54244 26.2029 6.84031Z"
      fill="#18B73B"></path>
    <path
      d="M62.984 24.4856C60.4577 17.3007 55.35 11.3768 48.6014 7.80523C47.9432 7.457 47.128 7.70833 46.7799 8.36599C46.4317 9.02378 46.6826 9.83925 47.3405 10.1875C53.4879 13.4409 58.1405 18.8362 60.4413 25.3796C60.6361 25.9338 61.1566 26.2807 61.7126 26.2807C61.861 26.2807 62.0118 26.2559 62.1597 26.204C62.8618 25.9571 63.2309 25.1878 62.984 24.4856Z"
      fill="#18B73B"></path>
    <path
      d="M31.7858 39.4692C31.5351 39.2186 31.1888 39.0742 30.833 39.0742C30.4786 39.0742 30.1309 39.2184 29.8802 39.4692C29.6296 39.7197 29.4854 40.0674 29.4854 40.4219C29.4854 40.7778 29.6296 41.124 29.8802 41.376C30.1322 41.6268 30.4786 41.7695 30.833 41.7695C31.1874 41.7695 31.5351 41.6267 31.7858 41.376C32.0378 41.124 32.1807 40.7778 32.1807 40.4219C32.1807 40.0674 32.0378 39.7197 31.7858 39.4692Z"
      fill="#18B73B"></path>
    <path
      d="M39.1535 39.4692C38.9028 39.2186 38.5551 39.0742 38.2007 39.0742C37.8462 39.0742 37.4986 39.2184 37.2479 39.4692C36.9972 39.7197 36.853 40.0674 36.853 40.4219C36.853 40.7778 36.9972 41.124 37.2479 41.376C37.4986 41.6268 37.8462 41.7695 38.2007 41.7695C38.5551 41.7695 38.9028 41.6267 39.1535 41.376C39.4041 41.124 39.5483 40.7763 39.5483 40.4219C39.5483 40.0674 39.4041 39.7197 39.1535 39.4692Z"
      fill="#18B73B"></path>
    <path
      d="M36.8224 43.178C36.2962 42.6517 35.443 42.6517 34.9166 43.1778C34.6867 43.4076 34.3127 43.4076 34.0826 43.1778C33.5564 42.6517 32.703 42.6516 32.1768 43.178C31.6507 43.7044 31.6507 44.5576 32.1771 45.0838C32.8175 45.7241 33.6587 46.0443 34.4997 46.0443C35.3408 46.0443 36.182 45.7241 36.8224 45.0838C37.3487 44.5576 37.3488 43.7044 36.8224 43.178Z"
      fill="#18B73B"></path>
    <path
      d="M67.6522 66.3054H52.5584V61.3459C52.5584 57.6657 50.417 54.4127 47.2208 52.8912C48.3159 52.1306 49.3455 51.2712 50.2968 50.3199C54.5222 46.0944 56.8492 40.4765 56.8492 34.5007C56.8492 28.5249 54.5222 22.9069 50.2968 18.6815C46.0714 14.456 40.4533 12.1289 34.4776 12.1289C28.502 12.1289 22.8839 14.456 18.6586 18.6815C14.4328 22.9069 12.1058 28.5249 12.1058 34.5007C12.1058 40.4765 14.4328 46.0944 18.6583 50.3199C19.6146 51.2762 20.6496 52.14 21.7512 52.9036C18.5701 54.4308 16.4413 57.676 16.4413 61.3457V66.3054H1.38281C0.638502 66.3054 0.0351562 66.9088 0.0351562 67.653C0.0351562 68.3972 0.638502 69.0007 1.38281 69.0007H17.7889H51.2108H67.6522C68.3965 69.0007 68.9998 68.3972 68.9998 67.653C68.9998 66.9088 68.3965 66.3054 67.6522 66.3054ZM48.3908 48.4137C47.0297 49.7751 45.489 50.9238 43.812 51.8282C43.7647 51.8536 43.7201 51.8822 43.6773 51.9124L40.9786 51.4135C40.0502 51.2418 39.3762 50.4319 39.3762 49.4877V49.4276C40.5783 48.7534 41.6277 47.8387 42.4584 46.7482H44.5404C46.0968 46.7482 47.6011 47.1166 48.959 47.8201C48.7738 48.021 48.5851 48.2194 48.3908 48.4137ZM34.4998 48.0062C30.4712 48.0062 27.1937 44.7287 27.1937 40.7V38.3721H30.0771C32.9103 38.3721 35.5985 37.2763 37.6121 35.3316L41.806 37.7956V40.7C41.806 44.7287 38.5285 48.0062 34.4998 48.0062ZM36.1529 50.5624L34.517 52.1984L32.8885 50.5699C33.4134 50.6553 33.9512 50.7015 34.4998 50.7015C35.0632 50.7015 35.6148 50.6523 36.1529 50.5624ZM50.6708 45.6854C48.8111 44.6155 46.7151 44.053 44.5404 44.053H43.9214C44.2958 43.0043 44.5013 41.8759 44.5013 40.7V37.0244V35.8483H54.1076C53.8682 39.4099 52.6822 42.7865 50.6708 45.6854ZM48.3908 20.5875C48.5851 20.7818 48.774 20.9803 48.9591 21.1812C48.3488 21.4974 47.709 21.7459 47.048 21.9234C46.7062 20.5636 46.149 19.2885 45.4141 18.137C46.4723 18.8475 47.4693 19.6659 48.3908 20.5875ZM35.8475 14.9258C39.9142 15.463 43.2343 18.3938 44.3431 22.253H35.8475V14.9258ZM44.541 24.9484C44.607 24.9484 44.6728 24.9457 44.7387 24.9446C44.7392 24.9886 44.742 25.0323 44.742 25.0765V29.5501C44.742 30.2942 45.3454 30.8977 46.0897 30.8977C46.834 30.8977 47.4373 30.2942 47.4373 29.5501V25.0765C47.4373 24.9198 47.4336 24.764 47.4279 24.6086C48.5629 24.3367 49.6521 23.9022 50.6708 23.3161C52.6822 26.215 53.8682 29.5914 54.1076 33.153H44.3381C43.5126 28.5997 39.5961 25.1117 34.8474 24.9484H44.541ZM34.4998 27.6348C38.4365 27.6348 41.656 30.7647 41.801 34.6666L38.0473 32.4613C37.4797 32.1276 36.7545 32.2532 36.3317 32.7576C34.7771 34.6128 32.4974 35.6766 30.0771 35.6766H27.1937V35.3237V34.941C27.1937 30.9123 30.4712 27.6348 34.4998 27.6348ZM33.1522 14.9258V22.253H24.6566C25.7654 18.3938 29.0855 15.463 33.1522 14.9258ZM20.5641 20.5873C21.5082 19.6434 22.5314 18.8078 23.6185 18.0854C22.8674 19.2503 22.2986 20.5431 21.9517 21.9231C21.2799 21.7427 20.63 21.4888 20.0108 21.1651C20.1912 20.9697 20.3749 20.7765 20.5641 20.5873ZM18.2971 23.2973C19.325 23.8929 20.4251 24.3337 21.5718 24.6085C21.5663 24.764 21.5623 24.9198 21.5623 25.0766V29.5502C21.5623 30.2944 22.1657 30.8979 22.91 30.8979C23.6543 30.8979 24.2577 30.2944 24.2577 29.5502V25.0765C24.2577 25.0323 24.2605 24.9886 24.261 24.9446C24.3273 24.9457 24.3934 24.9484 24.4598 24.9484H34.1523C29.4036 25.1117 25.4871 28.5997 24.6616 33.153H14.8474C15.0873 29.5839 16.2778 26.2005 18.2971 23.2973ZM18.2968 45.7039C16.2778 42.8008 15.0873 39.4175 14.8474 35.8483H24.4982V37.0244V40.7C24.4982 41.8759 24.7037 43.0041 25.0781 44.053H24.4591C22.2719 44.053 20.1643 44.622 18.2968 45.7039ZM20.5643 48.4139C20.3751 48.2247 20.1912 48.0315 20.0108 47.8361C21.3764 47.1224 22.8914 46.7483 24.4593 46.7483H26.5413C27.3716 47.8382 28.4202 48.7523 29.6215 49.4265V49.4878C29.6215 50.432 28.9476 51.2418 28.0191 51.4135L25.2815 51.9198C25.2313 51.8829 25.1792 51.8478 25.123 51.8174C23.4538 50.9147 21.92 49.7696 20.5643 48.4139ZM30.6759 65.324L31.5385 66.3054H19.1366V61.3457C19.1366 58.1306 21.4312 55.3726 24.593 54.788L28.5092 54.0638C29.546 53.8722 30.4491 53.3455 31.1152 52.6083L32.9282 54.4213L30.3848 64.0914C30.2706 64.5252 30.3798 64.9871 30.6759 65.324ZM34.5174 65.6116L33.1738 64.0832L34.5166 58.9779L35.86 64.0835L34.5174 65.6116ZM49.8633 66.3054H37.4957L38.3583 65.3237C38.6543 64.9869 38.7633 64.5248 38.6493 64.0912L36.105 54.422L37.9 52.6271C38.5645 53.3542 39.4607 53.8736 40.4886 54.0637L44.4067 54.788C47.5685 55.3725 49.8633 58.1305 49.8633 61.3457V66.3054Z"
      fill="#18B73B"></path>
    <path
      d="M44.5305 6.01733C43.8288 5.76856 43.0588 6.13552 42.8099 6.83698L42.7957 6.87741C42.5507 7.58021 42.9217 8.34864 43.6244 8.59378C43.7713 8.64499 43.9211 8.66938 44.0683 8.66938C44.6254 8.66938 45.1468 8.32101 45.3406 7.76524L45.3502 7.73802C45.5989 7.03656 45.232 6.26611 44.5305 6.01733Z"
      fill="#18B73B"></path>
  </g>
  <defs>
    <clipPath id="clip0">
      <rect width="69" height="69" fill="white"></rect>
    </clipPath>
  </defs>
</svg>
