<svg width="146" height="30" viewBox="0 0 146 30" fill="none" xmlns="http://www.w3.org/2000/svg">
<path d="M36.7961 25L43.0932 7.09416H46.6023L52.8994 25H49.871L48.501 20.9862H41.2185L39.8245 25H36.7961ZM42.0357 18.4626H47.6358L44.4632 9.08904H45.2563L42.0357 18.4626ZM60.2985 25.2884C59.0487 25.2884 57.9271 24.992 56.9336 24.3991C55.9562 23.7903 55.1791 22.9731 54.6023 21.9476C54.0414 20.9221 53.761 19.7685 53.761 18.4866C53.761 17.2048 54.0495 16.0511 54.6263 15.0256C55.2031 14.0001 55.9802 13.191 56.9577 12.5981C57.9351 12.0052 59.0407 11.7088 60.2744 11.7088C61.3159 11.7088 62.2373 11.9171 63.0384 12.3337C63.8396 12.7503 64.4725 13.3272 64.9372 14.0642L64.5286 14.6891V6.80574H67.2205V25H64.6487V22.3562L64.9612 22.8609C64.5126 23.646 63.8716 24.2469 63.0384 24.6635C62.2052 25.0801 61.2919 25.2884 60.2985 25.2884ZM60.5629 22.7648C61.3159 22.7648 61.9889 22.5805 62.5818 22.212C63.1906 21.8434 63.6633 21.3387 63.9998 20.6978C64.3523 20.0408 64.5286 19.3038 64.5286 18.4866C64.5286 17.6694 64.3523 16.9404 63.9998 16.2994C63.6633 15.6585 63.1906 15.1538 62.5818 14.7853C61.9889 14.4167 61.3159 14.2325 60.5629 14.2325C59.8098 14.2325 59.1288 14.4167 58.5199 14.7853C57.911 15.1538 57.4383 15.6585 57.1019 16.2994C56.7654 16.9404 56.5971 17.6694 56.5971 18.4866C56.5971 19.3038 56.7654 20.0408 57.1019 20.6978C57.4383 21.3387 57.903 21.8434 58.4959 22.212C59.1047 22.5805 59.7937 22.7648 60.5629 22.7648Z" fill="#FF6240"/>
<path d="M70.6555 25V7.09416H77.1689C78.3707 7.09416 79.4282 7.31848 80.3415 7.76713C81.2709 8.19976 81.9919 8.84068 82.5046 9.68991C83.0174 10.5231 83.2738 11.5246 83.2738 12.6942C83.2738 13.8479 83.0094 14.8413 82.4806 15.6745C81.9679 16.5077 81.2548 17.1487 80.3415 17.5973C79.4282 18.046 78.3707 18.2703 77.1689 18.2703H73.4916V25H70.6555ZM73.4916 15.7466H77.241C77.882 15.7466 78.4428 15.6185 78.9235 15.3621C79.4042 15.1057 79.7807 14.7532 80.0531 14.3046C80.3255 13.8399 80.4617 13.2951 80.4617 12.6702C80.4617 12.0453 80.3255 11.5085 80.0531 11.0599C79.7807 10.5952 79.4042 10.2427 78.9235 10.0024C78.4428 9.74599 77.882 9.6178 77.241 9.6178H73.4916V15.7466ZM85.9292 25V11.9972H88.525V14.617L88.2846 14.2325C88.573 13.3832 89.0377 12.7744 89.6786 12.4058C90.3195 12.0213 91.0887 11.829 91.9859 11.829H92.7791V14.3046H91.6495C90.7522 14.3046 90.0231 14.585 89.4623 15.1458C88.9175 15.6906 88.6451 16.4757 88.6451 17.5012V25H85.9292ZM100.91 25.2884C99.6603 25.2884 98.5147 24.992 97.4732 24.3991C96.4477 23.8063 95.6305 22.9971 95.0216 21.9716C94.4128 20.9461 94.1083 19.7845 94.1083 18.4866C94.1083 17.1727 94.4128 16.011 95.0216 15.0016C95.6305 13.9761 96.4477 13.1749 97.4732 12.5981C98.4987 12.0052 99.6443 11.7088 100.91 11.7088C102.192 11.7088 103.338 12.0052 104.347 12.5981C105.373 13.1749 106.182 13.9761 106.775 15.0016C107.383 16.011 107.688 17.1727 107.688 18.4866C107.688 19.8005 107.383 20.9702 106.775 21.9957C106.166 23.0211 105.349 23.8303 104.323 24.4232C103.298 25 102.16 25.2884 100.91 25.2884ZM100.91 22.7648C101.679 22.7648 102.36 22.5805 102.953 22.212C103.546 21.8434 104.011 21.3387 104.347 20.6978C104.7 20.0408 104.876 19.3038 104.876 18.4866C104.876 17.6694 104.7 16.9404 104.347 16.2994C104.011 15.6585 103.546 15.1538 102.953 14.7853C102.36 14.4167 101.679 14.2325 100.91 14.2325C100.157 14.2325 99.4761 14.4167 98.8672 14.7853C98.2743 15.1538 97.8017 15.6585 97.4491 16.2994C97.1127 16.9404 96.9444 17.6694 96.9444 18.4866C96.9444 19.3038 97.1127 20.0408 97.4491 20.6978C97.8017 21.3387 98.2743 21.8434 98.8672 22.212C99.4761 22.5805 100.157 22.7648 100.91 22.7648ZM111.453 25V14.4488H109.05V11.9972H111.453V11.3243C111.453 10.3469 111.654 9.52967 112.054 8.87273C112.455 8.19976 113.008 7.68702 113.713 7.33451C114.434 6.982 115.259 6.80574 116.188 6.80574C116.365 6.80574 116.565 6.82177 116.789 6.85381C117.014 6.86984 117.198 6.89387 117.342 6.92592V9.28132C117.214 9.24927 117.07 9.23325 116.909 9.23325C116.749 9.21722 116.621 9.20921 116.525 9.20921C115.804 9.20921 115.227 9.37746 114.794 9.71394C114.362 10.0344 114.145 10.5712 114.145 11.3243V11.9972H117.126V14.4488H114.145V25H111.453ZM125.269 25.2884C123.972 25.2884 122.818 24.992 121.808 24.3991C120.815 23.7903 120.038 22.9731 119.477 21.9476C118.916 20.9061 118.636 19.7444 118.636 18.4626C118.636 17.1487 118.916 15.987 119.477 14.9775C120.054 13.9681 120.823 13.1749 121.784 12.5981C122.746 12.0052 123.835 11.7088 125.053 11.7088C126.031 11.7088 126.904 11.8771 127.673 12.2135C128.442 12.55 129.091 13.0147 129.62 13.6076C130.149 14.1844 130.549 14.8494 130.821 15.6024C131.11 16.3555 131.254 17.1567 131.254 18.0059C131.254 18.2142 131.246 18.4305 131.23 18.6548C131.214 18.8792 131.182 19.0875 131.134 19.2797H120.775V17.1166H129.596L128.298 18.102C128.458 17.3169 128.402 16.6199 128.13 16.011C127.873 15.3861 127.473 14.8974 126.928 14.5449C126.399 14.1764 125.774 13.9921 125.053 13.9921C124.332 13.9921 123.691 14.1764 123.13 14.5449C122.57 14.8974 122.137 15.4102 121.833 16.0831C121.528 16.7401 121.408 17.5412 121.472 18.4866C121.392 19.3679 121.512 20.137 121.833 20.7939C122.169 21.4509 122.634 21.9636 123.227 22.3321C123.835 22.7007 124.524 22.8849 125.294 22.8849C126.079 22.8849 126.744 22.7087 127.288 22.3562C127.849 22.0037 128.29 21.547 128.61 20.9862L130.821 22.0678C130.565 22.6766 130.165 23.2294 129.62 23.7262C129.091 24.2069 128.45 24.5914 127.697 24.8798C126.96 25.1522 126.151 25.2884 125.269 25.2884ZM132.372 25L136.915 18.4866L132.372 11.9972H135.569L139.294 17.4291H137.756L141.481 11.9972H144.678L140.111 18.4866L144.654 25H141.457L137.78 19.5441H139.27L135.569 25H132.372Z" fill="#18B73B"/>
<rect y="7" width="7.80347" height="7.80347" fill="#FF6240"/>
<rect y="16.7543" width="7.80347" height="7.80347" fill="#FF6240"/>
<rect x="9.75433" y="16.7543" width="7.80347" height="7.80347" fill="#FF6240"/>
<rect x="9.75433" y="7" width="7.80347" height="7.80347" rx="3.90173" fill="#18B73B"/>
</svg>
