<svg width="72" height="72" viewBox="0 0 72 72" fill="none" xmlns="http://www.w3.org/2000/svg">
<g filter="url(#filter0_b_77_2201)">
<circle cx="36" cy="36" r="36" fill="#18B73B"/>
</g>
<path d="M41.8017 32.1632L34.4353 38.2093L31.2996 34.1622C31.1348 33.9618 30.8787 33.8636 30.6242 33.9027C30.3698 33.9419 30.1541 34.113 30.0559 34.3538C29.9574 34.5946 29.9906 34.87 30.1434 35.0797L33.7346 39.7198C33.8548 39.8753 34.0311 39.9761 34.2247 40H34.3079C34.4766 40 34.64 39.9414 34.771 39.8338L42.728 33.3218C42.9319 33.1544 43.0322 32.8895 42.9908 32.627C42.9495 32.3645 42.7729 32.1442 42.5277 32.0492C42.2825 31.9542 42.0058 31.9987 41.802 32.1661L41.8017 32.1632Z" fill="white"/>
<path d="M36.5 25.0001C33.45 25.0001 30.525 26.2117 28.3683 28.3683C26.2116 30.5251 25 33.45 25 36.5C25 39.55 26.2117 42.475 28.3683 44.6317C30.5251 46.7884 33.45 48 36.5 48C39.55 48 42.475 46.7883 44.6317 44.6317C46.7884 42.475 48 39.55 48 36.5C47.9967 33.4511 46.784 30.5277 44.6281 28.3719C42.4721 26.216 39.549 25.0033 36.4999 25L36.5 25.0001ZM36.5 46.5001C33.8478 46.5001 31.3044 45.4464 29.429 43.5711C27.5535 41.6958 26.5 39.1524 26.5 36.5001C26.5 33.8479 27.5537 31.3046 29.429 29.4292C31.3043 27.5537 33.8478 26.5002 36.5 26.5002C39.1522 26.5002 41.6956 27.5538 43.571 29.4292C45.4465 31.3045 46.5 33.8479 46.5 36.5001C46.5 38.2555 46.0378 39.98 45.1602 41.5001C44.2825 43.0203 43.0201 44.2826 41.5 45.1603C39.9798 46.038 38.2553 46.5001 36.5 46.5001L36.5 46.5001Z" fill="white"/>
<defs>
<filter id="filter0_b_77_2201" x="-60" y="-60" width="192" height="192" filterUnits="userSpaceOnUse" color-interpolation-filters="sRGB">
<feFlood flood-opacity="0" result="BackgroundImageFix"/>
<feGaussianBlur in="BackgroundImageFix" stdDeviation="30"/>
<feComposite in2="SourceAlpha" operator="in" result="effect1_backgroundBlur_77_2201"/>
<feBlend mode="normal" in="SourceGraphic" in2="effect1_backgroundBlur_77_2201" result="shape"/>
</filter>
</defs>
</svg>
